<?xml version="1.0" encoding="iso-8859-1"?>
<!-- Generator: Adobe Illustrator 19.0.0, SVG Export Plug-In . SVG Version: 6.00 Build 0)  -->
<svg version="1.1" id="Layer_1" xmlns="http://www.w3.org/2000/svg" xmlns:xlink="http://www.w3.org/1999/xlink" x="0px" y="0px"
	 viewBox="0 0 512.001 512.001" style="enable-background:new 0 0 512.001 512.001;" xml:space="preserve">
<polygon style="fill:#B3B3B3;" points="290.49,245.001 314.88,303.878 307.975,357.806 256.003,328.268 247.472,246.821 "/>
<path style="fill:#CCCCCC;" d="M256.003,161.734l-7.425,58.717l-27.063,24.551l-14.849-35.849l-25.541-61.649
	c-19.811-47.827-16.916-102.052,7.882-147.491l52.146,125.873L256.003,161.734z"/>
<polygon style="fill:#B3B3B3;" points="256.003,161.734 248.578,220.45 221.515,245.001 206.666,209.152 226.304,161.734 
	241.154,125.885 "/>
<path style="fill:#CCCCCC;" d="M322.998,0c24.786,45.451,27.682,99.676,7.87,147.503l-40.378,97.498l-34.487,83.267l-43.31,23.35
	l-15.567-47.74l24.39-58.877l34.487-83.267L322.998,0z"/>
<g>
	<path style="fill:#F7B239;" d="M472.827,389.757c18.673,45.105-2.735,96.805-47.839,115.49
		c-45.105,18.685-96.817-2.735-115.49-47.839l-53.495-129.139l58.877-24.39l17.089-7.078l19.762,47.703
		c1.819-0.916,3.688-1.794,5.606-2.586C402.429,323.232,454.142,344.652,472.827,389.757z M442.052,444.662
		c11.644-28.102-1.708-60.325-29.81-71.97c-28.115-11.644-60.338,1.708-71.97,29.81c-11.644,28.102,1.695,60.325,29.81,71.97
		C398.185,486.116,430.408,472.764,442.052,444.662z"/>
	<path style="fill:#F7B239;" d="M256.003,328.268l-53.495,129.139c-18.685,45.105-70.398,66.525-115.49,47.84
		c-45.105-18.685-66.525-70.386-47.839-115.49c18.673-45.105,70.386-66.525,115.49-47.839c1.918,0.792,3.774,1.671,5.606,2.586
		l19.762-47.703l17.089,7.078L256.003,328.268z M171.733,444.662c11.644-28.102-1.708-60.325-29.81-71.97
		c-28.115-11.644-60.338,1.708-71.97,29.81c-11.644,28.102,1.695,60.325,29.81,71.97
		C127.866,486.116,160.089,472.764,171.733,444.662z"/>
</g>
<g>
	<path style="fill:#E09B2D;" d="M120.759,487.948c-8.196,0-16.519-1.574-24.548-4.902c-15.886-6.579-28.258-18.95-34.836-34.835
		c-6.577-15.883-6.575-33.378,0.006-49.26c6.573-15.88,18.942-28.252,34.825-34.832c15.884-6.581,33.381-6.581,49.269,0
		c32.791,13.587,48.416,51.313,34.833,84.096l0,0C170.048,472.974,146.024,487.948,120.759,487.948z M120.84,377.755
		c-5.941,0-11.879,1.171-17.531,3.512c-11.303,4.682-20.102,13.484-24.78,24.785c-4.684,11.305-4.686,23.754-0.006,35.057
		c4.681,11.303,13.486,20.107,24.792,24.79c11.302,4.682,23.749,4.682,35.053,0c11.304-4.682,20.107-13.486,24.791-24.788l0,0
		c9.666-23.329-1.455-50.175-24.79-59.844C132.718,378.926,126.778,377.755,120.84,377.755z"/>
	<path style="fill:#E09B2D;" d="M391.16,487.981c-8.345,0-16.688-1.646-24.63-4.936c-15.886-6.579-28.258-18.95-34.836-34.835
		c-6.577-15.883-6.576-33.378,0.005-49.26c6.574-15.88,18.943-28.252,34.827-34.832c15.885-6.581,33.382-6.581,49.269,0
		c32.791,13.587,48.416,51.313,34.832,84.096l0,0c-6.579,15.881-18.95,28.252-34.834,34.832
		C407.851,486.337,399.504,487.981,391.16,487.981z M391.159,377.755c-5.941,0-11.879,1.171-17.531,3.512
		c-11.303,4.682-20.103,13.484-24.781,24.786c-4.684,11.305-4.685,23.754-0.005,35.055c4.681,11.303,13.486,20.107,24.792,24.79
		c11.302,4.682,23.749,4.682,35.053,0c11.303-4.682,20.107-13.486,24.79-24.788l0,0c4.682-11.3,4.682-23.748,0-35.052
		c-4.682-11.303-13.486-20.108-24.788-24.791C403.037,378.926,397.097,377.755,391.159,377.755z"/>
</g>
<circle style="fill:#666666;" cx="256.756" cy="246.82" r="9.281"/>
<g>
</g>
<g>
</g>
<g>
</g>
<g>
</g>
<g>
</g>
<g>
</g>
<g>
</g>
<g>
</g>
<g>
</g>
<g>
</g>
<g>
</g>
<g>
</g>
<g>
</g>
<g>
</g>
<g>
</g>
</svg>
